<?xml version="1.0" standalone="no"?>
<!DOCTYPE svg PUBLIC "-//W3C//DTD SVG 20010904//EN"
 "http://www.w3.org/TR/2001/REC-SVG-20010904/DTD/svg10.dtd">
<svg version="1.0" xmlns="http://www.w3.org/2000/svg"
 width="1996.000000pt" height="2038.000000pt" viewBox="0 0 1996.000000 2038.000000"
 preserveAspectRatio="xMidYMid meet">
<metadata>
Created by potrace 1.16, written by Peter Selinger 2001-2019
</metadata>
<g transform="translate(0.000000,2038.000000) scale(0.100000,-0.100000)"
fill="#000000" stroke="none">
<path d="M72 20348 c-19 -19 -17 -2101 1 -2117 10 -8 208 -12 678 -13 l664 -3
47 -60 c138 -176 206 -258 337 -407 157 -179 336 -360 420 -426 47 -37 60 -43
95 -40 58 4 86 48 86 132 0 66 -19 206 -44 326 -9 41 -25 122 -37 180 -11 58
-27 131 -35 162 -8 32 -14 76 -14 98 l0 39 520 3 c351 2 522 6 530 14 7 7 10
328 10 1055 0 968 -1 1045 -17 1057 -24 17 -3223 18 -3241 0z"/>
<path d="M16425 19091 c-39 -10 -122 -43 -185 -74 -140 -68 -167 -84 -298
-170 -56 -37 -107 -67 -112 -67 -6 0 -10 -7 -10 -15 0 -8 -6 -15 -12 -15 -7 0
-53 -30 -103 -65 -49 -36 -110 -80 -135 -97 -288 -201 -768 -620 -1094 -952
-453 -463 -970 -1110 -1209 -1512 -24 -39 -30 -45 -41 -33 -13 14 -50 292 -61
464 -3 50 -10 135 -16 190 -5 55 -13 177 -18 270 -9 189 -24 240 -77 264 -42
19 -384 16 -431 -4 -40 -17 -145 -120 -216 -212 -98 -128 -190 -297 -252 -463
-7 -19 -19 -50 -25 -67 -7 -18 -16 -33 -21 -33 -10 0 -39 27 -60 57 -22 32
-139 116 -209 151 -93 46 -167 69 -315 97 -165 31 -335 42 -810 55 -209 5
-472 12 -585 15 -332 10 -682 50 -915 106 -45 10 -87 19 -96 19 -24 0 -340
105 -420 140 -160 69 -413 203 -539 285 -19 12 -69 44 -110 70 -41 26 -105 70
-141 96 -37 27 -71 49 -77 49 -6 0 -12 3 -14 8 -5 13 -149 103 -207 131 -53
24 -67 26 -241 29 -211 5 -255 -3 -300 -51 l-30 -32 -131 -5 -131 -5 -43 -48
c-37 -40 -85 -114 -153 -237 -8 -14 -52 -99 -97 -190 -152 -301 -254 -603
-315 -930 -12 -63 -28 -121 -34 -128 -10 -10 -22 -8 -62 12 -27 13 -92 43
-144 66 -52 23 -117 52 -145 65 -27 13 -84 38 -125 55 -41 18 -106 47 -145 65
-38 18 -92 43 -120 55 -27 12 -81 37 -120 55 -38 18 -92 43 -120 55 -110 50
-704 351 -730 370 -19 15 -480 246 -575 289 -139 63 -280 114 -405 147 -110
29 -111 29 -410 29 l-300 0 -55 -32 c-67 -39 -152 -125 -210 -213 -24 -36 -51
-77 -61 -91 -18 -27 -135 -256 -162 -319 -38 -85 -67 -162 -97 -250 -80 -242
-161 -595 -200 -880 -6 -41 -17 -120 -25 -175 -8 -55 -20 -161 -25 -235 -6
-74 -15 -184 -21 -245 -16 -182 -22 -800 -10 -1032 23 -445 76 -805 172 -1173
27 -103 50 -180 104 -350 51 -162 73 -221 129 -355 75 -180 105 -246 188 -405
176 -339 337 -572 592 -855 71 -80 125 -149 126 -160 0 -27 -204 -229 -380
-377 -75 -63 -212 -153 -289 -190 l-64 -30 -41 21 c-23 13 -57 31 -76 42 -31
17 -56 19 -208 19 -267 0 -262 6 -262 -283 l0 -209 46 -107 c87 -201 179 -351
316 -512 166 -197 398 -376 588 -454 80 -33 94 -48 76 -84 -22 -44 -63 -191
-80 -286 -12 -69 -16 -156 -16 -369 0 -353 18 -472 110 -740 46 -136 189 -396
240 -440 l32 -26 192 0 c155 0 196 3 213 15 12 8 40 49 63 90 43 78 133 185
155 185 7 0 25 -24 39 -54 15 -30 37 -70 50 -89 36 -53 40 -72 37 -194 -3
-135 7 -176 60 -245 64 -83 274 -283 382 -365 54 -41 101 -82 104 -90 8 -21
-15 -33 -68 -33 -154 0 -421 -67 -573 -143 -211 -104 -403 -297 -532 -534 -14
-26 -33 -54 -42 -61 -11 -8 -63 -12 -175 -12 -226 0 -305 -22 -472 -129 -122
-78 -348 -320 -435 -466 -13 -22 -26 -42 -29 -45 -12 -10 -121 -237 -141 -292
-11 -32 -29 -81 -40 -110 -57 -158 -90 -348 -97 -552 l-6 -170 -48 -44 c-112
-103 -224 -315 -287 -542 -54 -196 -57 -224 -57 -585 0 -367 4 -409 62 -585
100 -309 313 -574 618 -768 36 -22 199 -103 240 -118 80 -30 221 -73 276 -84
31 -6 64 -19 72 -28 12 -14 16 -66 21 -272 3 -140 9 -272 12 -293 l6 -37 7754
0 7754 0 0 86 c0 110 -7 154 -81 504 -27 130 -72 318 -114 480 -10 36 -23 90
-30 120 -7 30 -25 100 -40 155 -14 55 -32 123 -39 151 -7 27 -16 56 -20 63 -5
7 -14 36 -21 64 -7 29 -18 66 -24 82 -6 17 -31 91 -57 165 -25 74 -52 149 -60
167 -8 17 -14 35 -14 40 0 7 -44 122 -69 178 -5 11 -21 49 -36 85 -50 118
-182 377 -245 480 -5 8 -33 53 -61 100 -142 233 -356 529 -478 663 -39 42 -71
79 -71 82 0 2 8 34 17 72 15 58 18 117 18 406 l0 337 22 0 c13 0 32 9 43 20
11 11 27 20 35 20 75 0 411 206 475 292 24 32 25 37 28 236 3 176 1 207 -13
229 -28 43 -13 64 84 117 119 64 246 149 356 236 l89 72 65 -7 c94 -10 301
-76 426 -136 l70 -33 211 -4 210 -3 33 30 33 31 -4 347 c-3 274 -8 369 -22
448 -52 295 -123 493 -239 663 -32 45 -57 89 -57 98 0 8 10 18 23 23 83 33
418 106 712 156 307 52 408 83 445 135 18 26 20 45 20 224 0 163 -3 209 -19
269 -11 39 -29 110 -41 157 -12 47 -31 117 -43 155 -101 346 -313 648 -569
808 -16 10 -28 23 -28 31 0 7 23 50 50 96 28 46 50 85 50 87 0 2 12 22 26 44
23 38 44 75 133 244 106 198 230 518 300 770 43 155 50 180 56 220 4 22 15 83
25 135 51 255 68 465 77 930 10 544 -16 921 -84 1215 -45 195 -45 195 -251
195 -113 0 -154 3 -157 13 -3 6 -7 102 -8 212 -3 192 -4 202 -29 257 -41 88
-63 98 -228 98 -74 0 -142 5 -150 10 -12 8 -15 70 -16 422 -2 440 -14 755 -39
983 -23 211 -54 439 -75 545 -10 52 -21 115 -25 140 -6 48 -77 344 -99 420 -7
25 -24 81 -36 125 -29 99 -112 352 -139 423 -51 129 -60 152 -94 227 -63 142
-194 378 -308 555 -19 31 -38 62 -42 70 -4 8 -20 34 -35 58 -28 44 -375 602
-395 637 -7 10 -54 82 -105 160 -215 324 -397 546 -525 641 -97 72 -154 84
-386 83 -152 0 -212 -5 -266 -18z m-1683 -14918 c8 -10 43 -74 77 -142 52
-102 60 -126 49 -136 -14 -13 -88 -39 -148 -51 -19 -3 -73 -24 -119 -45 -46
-22 -94 -39 -107 -39 -26 0 -28 4 -44 111 -5 37 -16 84 -24 105 -18 51 -6 80
41 101 21 9 83 38 138 64 55 27 105 48 111 49 6 0 18 -8 26 -17z m-6217 -120
c66 -36 138 -76 161 -89 23 -12 92 -45 155 -74 63 -28 121 -55 130 -60 8 -4
51 -22 95 -39 43 -18 99 -42 124 -54 l45 -22 -2 -70 c-2 -39 -8 -101 -15 -140
-7 -38 -11 -118 -11 -177 1 -65 -3 -111 -9 -114 -6 -4 -43 -13 -82 -20 -258
-49 -447 -113 -661 -224 -141 -73 -218 -119 -286 -170 -57 -43 -71 -47 -86
-27 -6 6 -42 98 -81 202 -39 105 -89 237 -111 294 -21 57 -46 112 -55 122 -9
11 -16 36 -16 56 0 19 -6 41 -14 47 -7 6 -26 46 -41 89 l-28 77 28 40 c15 22
34 40 41 40 8 0 14 9 14 20 0 11 4 20 10 20 5 0 38 23 72 50 71 58 143 101
313 191 66 34 134 71 150 81 17 10 32 18 35 18 2 0 58 -30 125 -67z"/>
</g>
</svg>
