<?xml version="1.0" standalone="no"?>
<!DOCTYPE svg PUBLIC "-//W3C//DTD SVG 20010904//EN"
 "http://www.w3.org/TR/2001/REC-SVG-20010904/DTD/svg10.dtd">
<svg version="1.0" xmlns="http://www.w3.org/2000/svg"
 width="1864.000000pt" height="2010.000000pt" viewBox="0 0 1864.000000 2010.000000"
 preserveAspectRatio="xMidYMid meet">
<metadata>
Created by potrace 1.16, written by Peter Selinger 2001-2019
</metadata>
<g transform="translate(0.000000,2010.000000) scale(0.100000,-0.100000)"
fill="#000000" stroke="none">
<path d="M7310 20055 c-7 -8 -21 -15 -31 -15 -17 0 -18 -14 -21 -202 -4 -257
-1 -308 17 -308 7 0 18 -12 24 -27 7 -16 22 -45 34 -65 69 -114 167 -289 167
-297 0 -4 9 -20 21 -35 11 -14 19 -34 17 -44 -3 -16 -28 -17 -298 -22 -299 -6
-359 -12 -617 -61 -57 -10 -112 -19 -124 -19 -34 0 -329 -68 -444 -102 -213
-64 -443 -163 -670 -288 -33 -18 -76 -42 -95 -52 -19 -10 -53 -30 -75 -43 -22
-14 -68 -42 -103 -62 -84 -50 -92 -55 -127 -77 -16 -11 -52 -34 -80 -51 -74
-47 -249 -160 -345 -224 -46 -31 -89 -58 -95 -61 -6 -3 -55 -35 -110 -71 -317
-209 -584 -364 -715 -414 -259 -99 -433 -129 -640 -113 -52 4 -212 10 -355 14
-305 7 -322 4 -355 -68 -16 -35 -20 -66 -20 -170 l0 -127 -31 -17 c-66 -34
-91 -75 -178 -291 -47 -118 -63 -162 -90 -243 -59 -178 -96 -336 -128 -540
-15 -94 -18 -177 -18 -455 0 -359 8 -448 56 -601 10 -33 19 -67 19 -75 1 -8 9
-32 20 -54 11 -22 19 -46 20 -53 0 -15 33 -88 92 -207 57 -115 64 -126 160
-273 49 -72 88 -136 88 -141 0 -5 -24 -13 -52 -19 -29 -5 -82 -17 -118 -25
-139 -33 -226 -40 -527 -46 l-313 -6 -37 -38 -38 -37 -3 -192 c-4 -212 -5
-206 70 -368 42 -90 42 -90 89 -178 141 -261 327 -494 492 -611 53 -38 56 -46
27 -61 -11 -6 -20 -17 -20 -25 0 -8 -6 -15 -12 -15 -14 -1 -71 -69 -130 -155
-38 -56 -128 -210 -128 -221 0 -3 -7 -20 -15 -37 -70 -154 -131 -401 -143
-587 -8 -111 -10 -118 -58 -215 -63 -125 -118 -228 -150 -280 -13 -22 -27 -47
-30 -55 -3 -8 -9 -22 -14 -30 -22 -37 -120 -209 -142 -250 -35 -63 -68 -120
-89 -155 -10 -16 -27 -46 -37 -65 -10 -19 -28 -52 -40 -72 -12 -21 -32 -55
-44 -75 -12 -21 -30 -54 -40 -73 -10 -19 -29 -53 -42 -75 -33 -56 -51 -86 -67
-115 -8 -14 -48 -81 -89 -150 -88 -148 -88 -148 -165 -279 -33 -57 -68 -116
-78 -132 -9 -16 -25 -42 -35 -58 -91 -152 -171 -302 -216 -406 -34 -76 -46
-179 -46 -383 1 -207 9 -265 50 -356 86 -190 302 -392 645 -603 110 -68 333
-184 450 -234 83 -36 115 -50 176 -78 25 -12 51 -21 57 -21 6 0 31 -9 54 -19
62 -28 219 -85 333 -119 240 -74 449 -126 640 -161 353 -64 433 -71 910 -78
455 -6 834 18 1185 76 30 5 91 12 135 16 45 4 119 19 169 36 79 26 101 29 200
28 61 -1 123 3 137 9 32 13 79 67 79 92 0 24 18 36 67 44 23 3 48 9 57 12 11
4 30 -7 55 -32 122 -122 323 -254 475 -311 168 -63 170 -63 361 -63 176 0 181
1 218 25 20 14 39 36 41 48 3 12 15 74 26 137 12 65 33 137 47 165 52 102 190
255 353 390 113 94 106 92 197 45 43 -22 84 -40 91 -40 6 0 12 -4 12 -8 0 -4
15 -14 34 -20 42 -15 74 -74 83 -150 5 -47 3 -55 -31 -106 -20 -31 -42 -69
-47 -86 -6 -16 -17 -30 -25 -30 -10 0 -14 -12 -14 -40 0 -22 -4 -40 -9 -40
-13 0 -64 -109 -90 -190 -54 -172 -91 -404 -77 -488 5 -34 1 -46 -26 -83 -64
-88 -109 -195 -125 -295 -13 -84 -13 -108 0 -212 9 -67 25 -137 37 -164 16
-38 19 -52 10 -69 -10 -17 -110 -89 -175 -125 -11 -6 -37 -21 -57 -32 -88 -51
-119 -67 -223 -122 -272 -141 -364 -196 -555 -331 -178 -125 -404 -338 -584
-549 -114 -134 -351 -477 -447 -646 -9 -17 -23 -42 -31 -55 -7 -13 -18 -31
-24 -39 -24 -31 -193 -361 -257 -500 -40 -87 -120 -274 -148 -342 -68 -169
-99 -252 -99 -262 0 -4 -6 -22 -14 -39 -22 -47 -126 -369 -166 -512 -12 -44
-31 -107 -41 -141 -10 -33 -19 -68 -19 -77 0 -10 -9 -50 -19 -90 -29 -106 -57
-237 -80 -372 -11 -66 -28 -160 -36 -210 -9 -49 -21 -144 -26 -210 -5 -66 -14
-156 -19 -200 -6 -44 -10 -238 -10 -432 l0 -353 6065 0 6065 0 0 85 c0 79 -11
140 -44 245 -8 25 -25 79 -37 120 -12 41 -30 100 -39 130 -10 30 -37 116 -60
190 -23 74 -51 157 -61 184 -11 27 -19 57 -19 68 0 10 -7 32 -15 47 -8 16 -19
46 -24 67 -5 22 -33 104 -61 184 -28 80 -55 159 -60 175 -5 17 -23 68 -40 115
-17 47 -36 101 -42 120 -5 19 -13 40 -18 45 -4 6 -10 24 -14 40 -4 17 -25 77
-48 135 -22 58 -51 134 -65 170 -38 103 -54 142 -74 188 -10 23 -19 48 -19 55
0 6 -7 25 -15 40 -8 16 -19 47 -25 68 -6 22 -18 43 -26 46 -9 3 -14 20 -14 49
0 24 -5 44 -10 44 -6 0 -15 12 -21 28 -6 15 -20 50 -31 77 -18 45 -30 74 -73
170 -8 17 -37 84 -65 150 -29 66 -62 143 -75 170 -12 28 -37 82 -55 120 -95
209 -238 484 -345 663 -128 215 -305 480 -327 490 -5 2 -8 8 -8 13 0 5 -37 58
-82 117 -271 352 -497 584 -752 772 -48 36 -110 82 -136 103 -27 20 -52 37
-55 37 -3 0 -29 17 -58 38 -85 62 -296 192 -378 233 -78 40 -169 71 -255 89
-127 26 -269 72 -374 122 -192 89 -194 91 -165 134 37 56 65 182 65 291 0 105
-40 347 -60 367 -16 16 -12 32 18 78 30 45 65 111 101 191 11 26 30 66 40 90
11 23 23 54 26 70 3 15 10 27 16 27 6 0 45 -31 87 -68 192 -170 334 -257 517
-316 172 -55 254 -68 476 -73 119 -3 248 -2 285 2 61 6 72 11 101 42 31 32 33
39 33 108 0 41 5 77 10 80 6 4 22 0 35 -9 13 -9 29 -16 36 -16 6 0 25 -7 42
-15 98 -46 410 -117 687 -155 41 -6 102 -15 135 -20 277 -41 1231 -33 1595 14
254 33 573 100 745 156 33 11 67 20 75 20 8 1 33 9 55 20 22 11 46 19 53 20
20 0 188 69 312 128 96 45 261 139 370 211 47 30 93 60 102 66 76 47 304 219
433 326 95 80 143 130 176 184 24 39 24 43 24 295 l0 255 -32 90 c-44 125 -75
200 -154 375 -12 25 -27 59 -34 75 -7 17 -31 68 -53 115 -22 47 -57 123 -79
170 -104 224 -133 284 -199 414 -85 170 -181 353 -219 421 -35 63 -93 165
-105 185 -5 8 -35 60 -67 115 -76 131 -70 121 -133 222 -70 114 -177 272 -201
299 -11 11 -19 25 -19 30 0 5 30 23 68 38 71 31 189 98 259 147 66 47 153 148
187 219 l31 65 3 215 c2 137 0 228 -7 252 -11 34 -101 128 -124 128 -33 0
-336 274 -436 395 -80 96 -93 125 -57 125 23 0 144 96 204 162 102 113 118
137 195 293 98 199 90 165 95 411 l4 221 -32 36 -32 37 -207 0 c-153 0 -213
-4 -232 -14 -43 -22 -165 -56 -203 -56 -33 0 -127 16 -236 41 -172 39 -195 46
-198 60 -1 9 17 44 41 80 67 97 129 223 180 359 43 118 56 164 82 295 24 120
27 156 32 460 3 182 0 443 -5 580 -12 268 -22 323 -67 365 -23 22 -31 23 -157
21 -167 -2 -178 3 -157 75 11 39 14 143 14 519 0 419 -2 481 -19 570 -45 237
-118 404 -200 454 -31 19 -48 21 -229 21 -235 0 -237 -1 -305 -110 -128 -206
-179 -244 -396 -297 -95 -23 -132 -27 -261 -27 -119 0 -159 4 -195 18 -25 10
-62 22 -83 27 -21 5 -45 13 -55 18 -9 5 -48 24 -87 42 -229 106 -442 283 -805
668 -216 229 -387 363 -622 485 -150 78 -268 126 -403 165 -162 46 -225 54
-455 58 -124 3 -229 8 -234 13 -12 12 131 186 205 248 35 30 92 74 127 98 100
71 102 76 102 299 l0 191 -28 33 c-36 44 -96 66 -257 97 -122 23 -602 32 -760
13 -60 -7 -135 -13 -165 -13 l-55 -1 -1 166 c-1 91 -4 178 -8 192 -13 54 -36
59 -258 58 -211 0 -354 -19 -424 -56 -16 -8 -34 -15 -40 -15 -20 0 -176 -91
-254 -149 -135 -98 -312 -287 -412 -436 -78 -118 -178 -311 -178 -346 0 -40
-26 -27 -113 58 -84 82 -274 233 -293 233 -4 0 -17 8 -28 18 -24 21 -154 102
-163 102 -4 0 -14 6 -22 14 -33 30 -410 214 -626 306 -55 23 -118 51 -141 61
-23 10 -46 19 -51 19 -9 0 -51 17 -148 61 -11 4 -38 15 -60 23 -22 7 -56 19
-75 26 -19 7 -55 21 -80 30 -206 79 -260 89 -471 90 -154 0 -189 -3 -199 -15z"/>
<path d="M2600 6406 c-69 -13 -154 -43 -222 -77 -56 -29 -177 -152 -217 -221
-30 -54 -52 -70 -65 -49 -9 14 -79 48 -163 78 l-78 28 -300 0 -300 0 -80 -29
c-44 -16 -87 -34 -95 -40 -8 -7 -28 -18 -45 -26 -53 -25 -188 -171 -219 -236
-52 -109 -58 -144 -63 -384 -4 -197 -2 -237 15 -320 42 -201 128 -367 288
-554 35 -41 64 -80 64 -86 0 -5 3 -10 8 -10 4 0 39 -30 77 -66 97 -91 260
-221 383 -304 57 -39 105 -70 107 -70 3 0 28 -15 57 -33 57 -36 321 -167 336
-167 6 0 29 -9 53 -20 40 -18 67 -20 283 -20 273 0 262 -3 391 101 177 143
555 528 555 566 0 6 4 13 8 15 9 3 65 83 94 133 26 43 103 204 116 243 76 212
92 318 92 613 0 288 -20 411 -88 544 -110 215 -260 353 -427 391 -76 17 -472
17 -565 0z"/>
</g>
</svg>
