<?xml version="1.0" standalone="no"?>
<!DOCTYPE svg PUBLIC "-//W3C//DTD SVG 20010904//EN"
 "http://www.w3.org/TR/2001/REC-SVG-20010904/DTD/svg10.dtd">
<svg version="1.0" xmlns="http://www.w3.org/2000/svg"
 width="1507.000000pt" height="1905.000000pt" viewBox="0 0 1507.000000 1905.000000"
 preserveAspectRatio="xMidYMid meet">
<metadata>
Created by potrace 1.16, written by Peter Selinger 2001-2019
</metadata>
<g transform="translate(0.000000,1905.000000) scale(0.100000,-0.100000)"
fill="#000000" stroke="none">
<path d="M9191 19025 c-207 -54 -635 -209 -966 -351 -867 -371 -1987 -1009
-2683 -1528 -133 -99 -190 -136 -210 -136 -71 0 -118 -29 -219 -133 -55 -56
-117 -126 -137 -155 -21 -29 -106 -112 -190 -184 -335 -292 -564 -514 -992
-960 -121 -126 -454 -528 -520 -628 -31 -46 -32 -47 -186 -96 -383 -120 -758
-161 -1053 -115 -209 32 -297 64 -634 227 -106 52 -197 94 -201 94 -4 0 -19 9
-32 20 -41 32 -109 46 -157 32 -51 -16 -100 -57 -117 -99 -35 -83 5 -379 81
-603 53 -155 146 -348 229 -475 175 -268 472 -538 708 -642 99 -44 95 -41 83
-57 -76 -99 -193 -297 -305 -511 -219 -420 -316 -580 -445 -734 -231 -278
-565 -427 -903 -404 -44 3 -95 3 -115 -1 -38 -7 -127 -79 -127 -102 0 -8 -21
-37 -47 -65 -58 -62 -61 -88 -39 -320 49 -520 291 -996 685 -1345 158 -141
298 -237 494 -339 l76 -40 -28 -30 c-16 -16 -70 -93 -121 -170 -51 -77 -117
-170 -147 -207 -87 -107 -219 -178 -330 -178 -106 0 -183 -77 -183 -181 0 -22
6 -54 14 -72 34 -82 354 -317 539 -397 58 -25 58 -25 91 -107 50 -121 125
-223 273 -370 l132 -133 -43 -25 c-64 -38 -179 -74 -283 -90 -51 -8 -100 -18
-110 -24 -29 -15 -71 -64 -82 -94 -15 -40 -14 -112 4 -153 46 -111 270 -321
450 -425 145 -83 381 -159 493 -159 100 0 107 -12 32 -50 -35 -18 -86 -47
-114 -65 -48 -31 -57 -33 -171 -39 -276 -14 -448 -89 -623 -270 -155 -161
-242 -314 -425 -752 -58 -138 -131 -306 -162 -374 -154 -332 -201 -526 -212
-861 -10 -307 29 -649 109 -964 11 -44 24 -113 29 -153 10 -87 83 -311 143
-436 23 -50 79 -145 123 -211 44 -66 90 -142 101 -168 44 -100 157 -269 281
-422 326 -403 762 -751 1258 -1007 l152 -79 -46 -42 c-105 -96 -110 -201 -15
-299 78 -81 219 -113 462 -106 154 5 251 24 376 74 61 25 65 25 111 10 66 -21
404 -102 483 -116 36 -6 151 -29 257 -50 426 -87 824 -141 1243 -170 216 -15
705 -12 1050 6 531 27 782 31 1265 21 766 -17 894 -2 1518 177 257 75 410 106
685 142 262 34 365 50 497 79 144 33 486 148 649 220 172 75 385 147 760 256
623 181 747 237 930 423 53 54 110 125 136 169 l45 75 83 33 c221 86 484 229
757 410 148 99 209 146 276 215 68 70 89 99 99 134 6 25 20 72 30 105 30 96
31 124 15 279 -39 370 -124 700 -292 1126 -128 327 -283 609 -443 810 -67 83
-282 301 -328 332 l-24 16 26 44 c64 109 106 285 106 444 0 102 -20 170 -62
211 -70 68 -155 72 -274 14 -165 -79 -423 -166 -441 -148 -3 4 -16 78 -29 164
-33 224 -61 307 -126 378 -28 31 -71 66 -95 79 l-45 22 44 51 c109 128 189
324 219 536 16 108 7 148 -42 202 -49 54 -94 70 -163 60 -28 -4 -62 -6 -74 -6
-38 1 -158 70 -204 115 l-41 41 164 6 c141 5 182 10 288 38 261 68 472 167
727 341 233 159 422 299 487 360 49 46 59 62 64 97 8 59 -4 107 -34 143 -14
17 -23 33 -21 35 3 3 43 29 91 57 128 79 232 165 375 313 158 162 186 211 180
310 -4 59 -7 68 -42 104 -45 46 -106 66 -170 58 -99 -14 -236 48 -400 179
-122 99 -167 145 -147 152 31 11 193 126 271 193 169 143 397 381 543 563 336
423 601 985 711 1511 53 255 75 574 57 823 -18 251 -60 400 -148 530 -54 78
-56 44 32 411 153 637 198 979 198 1501 1 343 -14 550 -58 807 -113 655 -416
1275 -818 1675 -117 116 -186 152 -307 156 -150 6 -227 -31 -508 -245 -291
-222 -333 -253 -492 -358 -212 -139 -376 -236 -700 -410 -815 -438 -1048 -575
-1241 -731 l-66 -53 -13 77 c-22 138 -44 192 -100 247 -49 48 -52 49 -118 53
-52 2 -75 -1 -104 -16 l-38 -20 0 32 c-1 116 -23 343 -45 457 -14 74 -52 235
-85 359 -32 124 -79 312 -104 419 -90 381 -178 669 -298 965 -68 169 -172 384
-224 461 -54 82 -141 159 -207 183 -82 31 -219 30 -346 -3z"/>
</g>
</svg>
