<?xml version="1.0" standalone="no"?>
<!DOCTYPE svg PUBLIC "-//W3C//DTD SVG 20010904//EN"
 "http://www.w3.org/TR/2001/REC-SVG-20010904/DTD/svg10.dtd">
<svg version="1.0" xmlns="http://www.w3.org/2000/svg"
 width="1830.000000pt" height="2048.000000pt" viewBox="0 0 1830.000000 2048.000000"
 preserveAspectRatio="xMidYMid meet">
<metadata>
Created by potrace 1.16, written by Peter Selinger 2001-2019
</metadata>
<g transform="translate(0.000000,2048.000000) scale(0.100000,-0.100000)"
fill="#000000" stroke="none">
<path d="M7591 20438 c-10 -31 -15 -137 -18 -380 -3 -240 -8 -340 -16 -346
-12 -9 -100 -1 -202 18 -158 31 -322 107 -407 190 -48 47 -58 63 -67 111 -21
103 -57 119 -270 119 -143 0 -161 -2 -201 -22 -39 -20 -48 -30 -65 -78 -17
-49 -20 -88 -23 -368 -3 -280 3 -403 22 -452 4 -9 1 -23 -6 -33 -15 -20 -41
-14 -128 26 -106 48 -116 55 -192 119 -84 73 -118 81 -326 77 -172 -4 -182 -7
-225 -70 -27 -39 -38 -40 -137 -10 -79 24 -168 51 -275 81 -44 12 -106 31
-138 41 -31 11 -64 19 -73 19 -8 0 -43 9 -77 19 -180 57 -342 80 -549 81 -212
0 -250 -9 -310 -72 -27 -28 -48 -56 -48 -64 0 -7 -9 -33 -19 -56 -39 -89 -85
-362 -121 -728 -16 -166 -20 -277 -20 -580 0 -350 2 -385 24 -520 14 -80 32
-174 41 -210 9 -36 26 -101 37 -145 30 -120 91 -339 110 -390 5 -16 16 -50 24
-75 14 -47 46 -135 84 -230 12 -30 28 -72 36 -93 42 -113 149 -325 262 -518
51 -87 62 -104 126 -198 40 -59 47 -75 41 -98 -13 -49 -8 -362 6 -397 17 -41
66 -117 123 -190 25 -32 46 -62 46 -65 0 -4 -7 -16 -15 -27 -11 -15 -14 -61
-15 -232 0 -189 2 -219 21 -275 59 -177 187 -374 351 -542 65 -66 118 -124
118 -129 0 -6 -11 -47 -25 -92 -49 -162 -65 -289 -64 -529 0 -121 5 -240 10
-265 16 -70 20 -114 12 -126 -4 -6 -110 -61 -235 -123 -126 -61 -228 -116
-228 -121 0 -6 -16 -10 -35 -10 -19 0 -35 -4 -35 -9 0 -5 -116 -69 -257 -142
-142 -73 -274 -141 -293 -152 -19 -11 -73 -40 -120 -65 -47 -25 -101 -54 -120
-65 -19 -11 -60 -33 -90 -50 -122 -66 -350 -201 -703 -416 l-72 -43 -230 1
c-221 2 -407 -10 -429 -28 -6 -5 -29 -14 -51 -21 -22 -7 -73 -35 -113 -63
-182 -125 -293 -324 -337 -605 -22 -139 -16 -703 8 -827 88 -444 406 -863 912
-1199 96 -64 151 -98 290 -178 187 -108 466 -222 705 -287 258 -71 331 -81
581 -81 l207 0 28 -28 c16 -15 56 -60 88 -100 66 -81 277 -276 395 -365 193
-146 388 -235 791 -361 210 -66 370 -86 684 -86 400 0 529 31 813 197 69 41
97 53 105 45 9 -9 8 -78 0 -259 -7 -137 -17 -340 -23 -453 -9 -198 -55 -715
-64 -729 -2 -4 -9 -48 -15 -97 -11 -92 -19 -137 -70 -384 -53 -262 -149 -621
-260 -980 -78 -252 -151 -491 -162 -530 -5 -19 -15 -53 -23 -75 -8 -22 -25
-78 -39 -125 -14 -47 -41 -137 -60 -200 -19 -63 -53 -180 -76 -260 -23 -80
-52 -181 -65 -225 -13 -44 -42 -147 -64 -230 -23 -82 -48 -172 -55 -200 -13
-45 -75 -298 -126 -510 -44 -186 -91 -407 -119 -565 -42 -236 -52 -297 -61
-375 -5 -44 -16 -139 -25 -212 -13 -108 -16 -204 -12 -520 3 -345 6 -401 25
-503 12 -63 22 -116 22 -117 0 -2 2167 -3 4816 -3 l4816 0 -4 348 c-5 369 -7
393 -69 727 -31 168 -103 418 -204 705 -18 52 -80 210 -100 255 -7 17 -25 62
-39 100 -15 39 -34 85 -42 103 -8 19 -31 75 -50 125 -20 51 -39 97 -43 102 -4
6 -22 48 -40 94 -18 46 -36 91 -41 100 -4 9 -18 41 -30 71 -13 30 -31 73 -41
95 -10 22 -29 69 -44 105 -14 36 -32 79 -40 95 -8 17 -35 80 -60 140 -26 61
-53 124 -60 140 -8 17 -35 80 -60 140 -49 117 -156 363 -186 431 -11 22 -19
43 -19 47 0 3 -15 39 -34 79 -19 40 -46 102 -61 138 -15 36 -35 83 -44 105
-10 22 -25 56 -34 75 -8 19 -26 60 -40 90 -14 30 -35 80 -47 110 -12 30 -28
69 -35 85 -50 113 -65 149 -65 159 0 6 -7 25 -16 41 -9 17 -20 48 -24 70 -5
22 -15 74 -23 115 -9 41 -25 135 -36 208 -46 295 -63 403 -82 517 -41 249 -60
363 -79 460 -11 55 -22 126 -25 157 -4 31 -13 62 -21 69 -10 8 -14 35 -14 96
0 58 -5 91 -15 107 -9 13 -18 48 -21 77 -3 30 -14 95 -24 144 -33 165 -73 408
-115 701 -9 61 -22 194 -30 295 -8 101 -17 205 -21 231 -5 39 -2 50 15 67 12
12 28 21 36 21 9 0 35 9 58 20 23 11 59 23 79 27 l38 6 0 -154 0 -154 53 -25
c50 -24 61 -25 280 -28 186 -3 243 -1 303 13 154 34 339 156 448 294 26 34 55
61 64 61 9 0 51 -9 92 -20 136 -37 265 -50 485 -50 228 0 274 7 319 48 51 48
56 74 56 286 0 175 2 195 18 201 9 3 84 20 165 36 82 16 152 31 157 34 5 3 35
10 67 16 32 6 81 17 108 24 28 8 93 24 145 36 52 12 120 28 150 36 30 9 82 22
115 29 33 8 101 25 150 39 50 14 115 32 145 39 30 8 98 26 150 41 52 14 122
33 155 41 107 25 219 52 285 68 215 54 473 128 533 153 l37 16 0 3899 0 3900
-112 -4 c-134 -4 -112 6 -463 -194 -262 -148 -312 -176 -540 -294 -169 -88
-262 -137 -335 -177 -142 -77 -220 -118 -396 -208 -104 -53 -209 -108 -234
-121 -25 -13 -56 -28 -70 -34 -14 -6 -97 -48 -185 -94 -183 -96 -408 -210
-445 -225 -14 -6 -32 -15 -40 -20 -14 -9 -124 -61 -275 -131 -78 -36 -350
-166 -377 -180 -9 -5 -68 -36 -130 -68 -62 -32 -136 -73 -164 -90 -28 -18 -54
-32 -58 -32 -15 0 -3 26 32 68 20 25 48 62 62 82 14 21 49 73 78 116 55 79
172 278 172 289 0 4 8 19 18 33 10 15 40 77 66 137 26 61 53 121 61 135 7 14
18 41 23 60 6 19 23 67 37 105 94 252 161 548 196 875 13 125 5 835 -11 920
-5 30 -14 102 -20 160 -10 112 -29 246 -60 425 -11 61 -22 133 -25 160 -4 28
-13 86 -20 130 -8 44 -17 121 -21 170 -7 100 -34 200 -67 251 -35 53 -82 64
-280 64 -170 0 -250 -8 -362 -37 -56 -14 -128 -25 -330 -53 -44 -6 -107 -15
-140 -21 -33 -6 -94 -16 -135 -23 -42 -7 -107 -20 -145 -29 -39 -9 -101 -24
-140 -33 -38 -9 -95 -20 -125 -24 -30 -4 -73 -12 -95 -18 -22 -6 -74 -16 -115
-22 -41 -7 -101 -18 -133 -26 -70 -18 -93 -12 -102 24 -22 91 -93 237 -138
286 l-34 36 -181 0 -180 0 -42 35 -42 35 -196 0 c-224 0 -211 4 -329 -96 -90
-76 -244 -174 -275 -174 -7 0 -30 -8 -52 -19 -72 -33 -211 -61 -302 -61 -114
0 -124 6 -124 78 -1 198 -77 494 -180 702 -86 175 -228 356 -337 431 l-42 29
-204 0 -203 0 -37 -27 c-33 -25 -97 -112 -97 -131 0 -4 -9 -25 -20 -47 -11
-22 -20 -47 -20 -56 0 -22 -38 -69 -56 -69 -8 0 -34 9 -57 20 -137 67 -456
161 -643 190 -27 4 -81 15 -120 23 -38 9 -105 23 -149 32 -116 24 -185 41
-225 55 -66 24 -160 71 -160 80 0 6 -160 10 -423 10 l-423 0 -13 -42z"/>
<path d="M1435 17194 c-25 -26 -61 -104 -75 -164 -36 -157 -204 -350 -376
-430 -98 -46 -94 -36 -94 -235 l0 -173 61 -59 c59 -56 155 -186 213 -286 15
-26 66 -123 113 -215 100 -195 121 -233 141 -249 11 -9 66 -13 194 -13 l178 0
19 30 c10 17 21 54 24 83 4 29 20 90 35 137 51 149 108 248 227 391 l75 90 -2
186 -3 186 -40 23 c-137 76 -229 264 -291 594 -8 47 -23 93 -31 103 -14 15
-37 17 -184 17 -141 0 -170 -3 -184 -16z"/>
<path d="M2700 15204 c-26 -11 -27 -15 -33 -119 -4 -60 -7 -173 -7 -253 0
-128 -3 -151 -21 -189 -28 -58 -103 -139 -180 -193 -117 -84 -109 -64 -109
-265 0 -97 4 -185 10 -195 5 -10 36 -32 67 -50 75 -42 199 -163 273 -265 31
-44 88 -136 124 -205 37 -69 76 -134 87 -145 18 -18 35 -20 180 -23 178 -4
211 3 227 46 6 15 14 59 17 97 11 118 56 279 106 376 11 20 19 52 19 70 0 35
45 112 123 213 l37 49 0 172 c0 190 2 184 -70 217 -19 9 -48 22 -63 29 -51 23
-140 103 -150 134 -6 17 -26 49 -46 71 -34 39 -103 168 -185 347 -20 42 -37
78 -38 79 -2 1 -79 4 -172 7 -116 4 -178 2 -196 -5z"/>
<path d="M1368 13589 c-16 -9 -18 -28 -18 -177 0 -166 0 -167 -31 -228 -42
-85 -125 -175 -192 -208 -30 -14 -61 -26 -70 -26 -9 0 -21 -9 -27 -19 -12 -23
-14 -340 -1 -359 4 -7 31 -24 60 -37 28 -13 54 -31 57 -40 3 -8 10 -15 15 -15
25 0 166 -186 274 -360 54 -86 93 -140 103 -141 10 0 91 0 181 -1 159 -1 165
0 183 22 14 17 18 39 18 94 0 97 32 216 81 298 21 36 39 71 39 77 0 6 5 11 10
11 6 0 10 5 10 11 0 6 23 48 50 94 l50 83 0 170 c0 94 -3 177 -6 186 -3 9 -36
32 -73 51 -157 82 -269 238 -315 434 -8 34 -20 69 -26 77 -10 11 -46 14 -184
14 -97 0 -179 -5 -188 -11z"/>
<path d="M1685 2930 c-155 -25 -237 -42 -295 -61 -313 -101 -563 -256 -799
-498 -146 -150 -247 -296 -360 -519 -28 -56 -82 -201 -109 -297 -71 -245 -87
-392 -87 -795 0 -348 19 -591 55 -723 l11 -37 1899 0 1900 0 0 67 0 66 -58 66
c-242 276 -353 454 -403 643 -22 84 -22 87 -5 174 9 49 21 125 26 169 5 44 14
114 19 155 6 41 11 173 11 293 0 178 -4 242 -21 340 -11 67 -27 134 -35 149
-8 15 -14 33 -14 40 0 22 -84 179 -136 253 -175 250 -428 409 -789 496 -82 20
-122 22 -425 24 -184 2 -357 0 -385 -5z"/>
</g>
</svg>
