<?xml version="1.0" standalone="no"?>
<!DOCTYPE svg PUBLIC "-//W3C//DTD SVG 20010904//EN"
 "http://www.w3.org/TR/2001/REC-SVG-20010904/DTD/svg10.dtd">
<svg version="1.0" xmlns="http://www.w3.org/2000/svg"
 width="1816.000000pt" height="1994.000000pt" viewBox="0 0 1816.000000 1994.000000"
 preserveAspectRatio="xMidYMid meet">
<metadata>
Created by potrace 1.16, written by Peter Selinger 2001-2019
</metadata>
<g transform="translate(0.000000,1994.000000) scale(0.100000,-0.100000)"
fill="#000000" stroke="none">
<path d="M10440 19893 c-19 -1 -129 -7 -245 -12 -571 -27 -1231 -150 -1605
-301 -408 -164 -631 -330 -738 -550 l-47 -95 -5 -240 -5 -240 -25 0 c-17 0
-26 6 -28 20 -7 42 -24 73 -48 84 -16 7 -95 11 -213 11 -176 0 -190 -1 -229
-22 -90 -49 -374 -343 -468 -485 -19 -28 -42 -54 -50 -57 -21 -8 -398 246
-663 447 -57 43 -110 81 -117 84 -8 3 -14 10 -14 17 0 6 -14 18 -30 26 -16 8
-134 99 -262 201 -466 371 -610 473 -710 500 -46 12 -416 15 -470 4 -94 -20
-195 -121 -291 -290 -58 -100 -187 -358 -187 -371 0 -3 -6 -20 -14 -37 -54
-122 -66 -151 -66 -159 0 -6 -7 -24 -15 -41 -8 -18 -33 -84 -55 -147 -38 -105
-53 -152 -109 -335 -86 -279 -159 -702 -181 -1048 -12 -184 -12 -792 0 -1017
10 -190 41 -466 65 -581 21 -100 17 -109 -52 -109 -105 0 -151 -44 -184 -176
-35 -141 -51 -309 -56 -589 -7 -359 19 -565 89 -725 31 -70 89 -182 109 -212
34 -47 21 -68 -42 -68 -41 0 -83 -24 -111 -62 -22 -32 -23 -38 -22 -248 3
-825 11 -1179 28 -1305 53 -401 162 -759 291 -966 112 -178 331 -413 577 -621
l56 -47 5 -313 c4 -275 7 -322 25 -387 30 -107 18 -120 -75 -80 -108 46 -232
59 -572 59 -266 0 -337 -3 -445 -20 -197 -31 -334 -74 -501 -160 -194 -99
-287 -171 -575 -440 -275 -258 -322 -286 -699 -410 -306 -100 -427 -150 -568
-231 -111 -64 -151 -95 -244 -188 -176 -177 -294 -423 -346 -721 -21 -120 -25
-654 -6 -829 18 -168 63 -394 148 -756 48 -205 79 -354 115 -555 12 -63 30
-160 40 -215 31 -169 34 -209 13 -227 -18 -15 -171 -58 -210 -58 -11 0 -54 -7
-94 -17 -56 -12 -81 -23 -101 -46 l-28 -29 0 -203 0 -202 34 -45 c36 -47 156
-150 240 -206 66 -45 132 -77 208 -103 34 -12 69 -27 76 -34 11 -10 14 -72 13
-301 -1 -252 1 -302 19 -392 32 -162 94 -278 166 -308 27 -11 191 -17 400 -14
17 0 48 11 68 25 47 32 68 22 92 -42 76 -199 251 -488 397 -653 226 -257 564
-489 892 -614 39 -15 79 -31 90 -36 66 -28 307 -89 450 -114 138 -24 182 -27
435 -34 l235 -7 5 -185 c6 -208 9 -222 73 -251 61 -27 399 -28 502 0 133 36
246 105 321 197 75 92 51 84 269 84 143 0 204 4 228 14 62 25 109 124 132 273
19 126 23 143 35 143 12 0 18 -24 35 -127 8 -48 24 -144 35 -213 36 -213 62
-379 100 -630 47 -306 72 -458 83 -492 l12 -38 5600 0 c5498 0 5600 0 5610 19
6 11 37 50 70 89 159 185 296 378 414 587 34 61 66 117 71 125 5 8 23 44 40
80 17 36 40 82 51 102 10 20 19 43 19 50 1 7 9 31 20 53 11 22 19 46 20 53 0
8 6 28 14 45 35 77 125 379 186 627 10 41 23 93 28 115 6 22 19 83 30 135 11
52 27 129 36 170 9 41 21 113 27 160 5 47 14 101 19 120 5 19 14 94 20 167 6
73 15 176 20 230 12 127 12 751 0 868 -5 50 -14 139 -20 200 -14 152 -72 462
-105 565 -9 25 -15 52 -15 60 0 8 -9 47 -21 85 -67 218 -102 325 -119 365 -10
25 -31 76 -45 113 -32 83 -154 328 -189 380 -14 21 -26 40 -26 43 0 13 -111
168 -172 241 -182 216 -333 311 -595 377 -139 35 -271 46 -534 46 -259 0 -378
-11 -524 -47 -356 -87 -646 -265 -920 -563 -58 -63 -131 -152 -161 -195 -11
-16 -36 -52 -55 -80 -104 -151 -193 -331 -269 -545 -88 -250 -124 -599 -102
-991 15 -270 49 -442 136 -691 57 -162 142 -373 211 -523 8 -16 34 -77 58
-135 40 -94 58 -139 103 -260 12 -32 37 -117 78 -260 31 -109 39 -192 27 -266
-45 -259 -166 -475 -436 -779 -97 -109 -390 -349 -459 -375 -14 -5 -26 -14
-26 -20 0 -5 -4 -10 -10 -10 -5 0 -53 -25 -107 -55 -54 -30 -172 -88 -262
-130 -188 -86 -192 -86 -217 3 -8 31 -22 77 -29 102 -21 68 -68 272 -125 537
-23 108 -23 107 5 338 7 61 16 157 20 215 3 58 13 182 21 275 17 202 20 1566
4 1835 -23 383 -60 756 -90 890 -6 25 -14 74 -20 110 -9 66 -24 144 -62 325
-28 134 -133 566 -159 652 -31 100 -99 303 -114 338 -8 17 -27 62 -44 100
-166 384 -448 768 -733 996 -218 174 -512 346 -695 405 -57 19 -83 32 -83 43
0 9 30 48 66 86 36 39 86 101 111 138 25 38 51 71 58 73 7 3 39 -12 71 -34 98
-64 228 -122 354 -159 45 -14 67 -29 123 -86 138 -143 175 -225 186 -407 8
-141 17 -163 80 -198 36 -20 52 -22 221 -22 238 0 302 15 565 135 242 111 491
322 579 493 9 17 23 32 31 32 8 0 55 -13 106 -30 173 -56 254 -65 574 -65 394
0 505 22 535 108 5 17 10 90 10 162 0 94 4 135 13 143 6 5 77 12 157 15 200 7
289 38 446 155 128 94 282 279 352 422 27 54 27 57 27 262 0 239 -4 251 -89
278 -26 9 -47 19 -47 23 1 4 1 11 1 17 0 5 19 22 43 38 67 47 176 147 249 229
187 208 310 437 377 698 51 199 54 231 59 521 4 309 2 325 -56 361 -50 31 -52
37 -52 200 0 225 -15 243 -200 243 -98 0 -100 0 -100 23 0 25 23 41 75 52 63
14 196 105 395 269 242 201 404 417 566 756 31 63 64 131 75 151 10 20 19 42
19 47 0 6 15 44 34 84 34 70 68 153 136 323 17 44 42 105 55 135 40 96 93 252
154 460 91 309 157 675 181 1001 5 74 15 184 22 244 9 77 13 292 13 710 0 621
-9 805 -52 1075 -8 52 -18 124 -23 160 -5 36 -16 92 -24 125 -9 32 -16 67 -16
77 0 27 -83 295 -104 338 -7 14 -23 48 -36 75 -33 69 -98 165 -129 192 -14 12
-50 32 -79 43 -47 18 -76 20 -265 20 -240 0 -304 -12 -472 -85 -16 -7 -79 -34
-140 -60 -60 -26 -143 -62 -183 -81 -40 -19 -75 -34 -78 -34 -5 0 -42 -17
-192 -86 -40 -19 -76 -34 -79 -34 -3 0 -31 -12 -62 -26 -58 -27 -108 -49 -186
-84 -25 -11 -64 -29 -87 -39 -24 -11 -65 -29 -93 -41 -27 -12 -75 -33 -105
-47 -30 -15 -82 -38 -115 -53 -162 -73 -281 -132 -795 -388 -305 -152 -556
-280 -558 -284 -2 -5 -8 -8 -13 -8 -5 0 -183 -85 -395 -190 -212 -104 -392
-190 -400 -190 -24 0 -54 19 -54 34 0 29 230 202 356 268 38 20 88 41 112 48
23 6 57 24 75 40 l32 28 3 194 c3 211 -1 229 -53 259 -17 10 -80 24 -145 33
-63 9 -140 20 -170 26 -80 16 -684 24 -805 11 -231 -25 -409 -69 -575 -144
-83 -37 -223 -122 -286 -173 -30 -25 -63 -44 -72 -42 -17 3 -20 11 -52 158
-33 150 -123 377 -206 520 -138 238 -244 390 -377 538 -21 23 -35 46 -32 51 3
5 49 12 103 15 178 12 635 46 752 56 63 6 192 17 285 25 396 34 650 75 824
132 119 39 304 126 384 180 135 92 235 228 266 364 14 59 14 450 0 525 -30
166 -191 357 -384 457 -119 62 -335 135 -580 197 -47 12 -71 18 -225 53 -225
52 -674 77 -1345 75 -269 -1 -506 -3 -525 -5z m-1809 -2067 c235 -34 651 -49
1219 -45 l445 4 2 -130 c2 -71 -3 -179 -10 -240 -12 -107 -13 -110 -37 -113
-15 -2 -41 7 -60 20 -83 56 -226 121 -365 166 -121 40 -188 56 -410 96 -49 9
-115 21 -145 27 -30 6 -98 16 -150 24 -302 42 -617 132 -679 194 -11 11 -26
21 -32 21 -5 0 -8 4 -4 10 3 5 15 6 29 0 13 -5 102 -20 197 -34z m-2757 -8472
c3 -9 6 -46 6 -82 1 -72 32 -228 49 -245 6 -6 11 -30 11 -54 0 -24 4 -43 10
-43 5 0 30 -41 55 -92 80 -158 250 -385 315 -418 21 -11 41 -24 44 -28 3 -5
-41 -26 -97 -47 -56 -21 -147 -60 -202 -86 -56 -27 -106 -49 -112 -49 -6 0
-13 -4 -15 -8 -1 -5 -30 -23 -63 -42 -116 -65 -252 -158 -440 -300 -212 -160
-238 -172 -243 -105 -9 142 -71 424 -134 610 -55 161 -186 456 -209 471 -5 3
-9 16 -9 28 0 31 20 36 163 36 l117 0 53 53 c28 28 75 78 102 109 101 114 205
186 345 242 163 64 243 80 254 50z"/>
<path d="M873 18961 c-33 -20 -74 -82 -95 -142 -6 -19 -24 -54 -39 -77 -20
-31 -29 -63 -34 -110 -15 -151 -110 -352 -227 -477 -68 -72 -135 -122 -283
-210 -156 -93 -155 -91 -155 -336 0 -231 -1 -228 137 -344 117 -98 297 -296
380 -417 95 -139 132 -215 208 -431 19 -52 38 -86 57 -102 29 -25 32 -25 223
-25 l193 0 29 28 c20 21 38 61 63 141 18 62 38 115 42 117 4 3 8 12 8 20 0 24
115 251 172 339 55 85 117 164 261 335 49 58 95 121 103 140 12 28 14 76 12
230 -3 188 -4 196 -27 229 -16 23 -48 45 -96 67 -39 18 -96 53 -126 78 -63 52
-157 178 -188 251 -25 61 -58 191 -66 265 -15 125 -55 337 -69 372 -9 20 -27
46 -42 57 -25 20 -39 21 -218 21 -171 0 -194 -2 -223 -19z"/>
<path d="M1780 14991 c-13 -4 -33 -22 -45 -41 -18 -32 -21 -58 -26 -265 -5
-214 -7 -236 -33 -314 -57 -178 -135 -279 -301 -389 -55 -37 -105 -78 -112
-92 -18 -35 -18 -375 0 -410 7 -14 40 -39 77 -58 73 -38 145 -90 207 -151 84
-82 308 -363 456 -573 75 -106 80 -108 305 -108 189 0 191 0 221 25 36 31 48
66 56 170 19 232 89 430 241 682 132 221 124 191 124 427 0 113 -4 215 -9 228
-14 38 -67 83 -139 118 -181 89 -358 239 -419 355 -17 33 -54 116 -82 185 -59
143 -91 197 -127 210 -28 11 -355 12 -394 1z"/>
</g>
</svg>
