<?xml version="1.0" encoding="UTF-8"?>
<svg width="92px" height="125px" viewBox="0 0 92 125" version="1.1" xmlns="http://www.w3.org/2000/svg" xmlns:xlink="http://www.w3.org/1999/xlink">
    <title>Barq Logo</title>
    <defs>
        <linearGradient x1="46.4034654%" y1="33.8765677%" x2="67.4865438%" y2="77.819424%" id="linearGradient-1">
            <stop stop-color="#000000" stop-opacity="0" offset="0%"></stop>
            <stop stop-color="#000000" offset="100%"></stop>
        </linearGradient>
    </defs>
    <g id="Barq Logo" stroke="none" stroke-width="1" fill="none" fill-rule="evenodd">
        <g id="Group" transform="translate(-0.000000, 0.000000)" fill-rule="nonzero">
            <path d="M86.3750863,55.0000065 C89.7186686,61.7953516 91.5859375,69.6491789 91.5859375,78.078125 C91.5859375,102.644531 74.7382812,125.355469 48.2421875,125.355469 C35.1796875,125.355469 24.640625,119.789062 17.7382812,110.066406 L17.7382812,110.066406 L16.7734375,122.460938 L0,122.460938 L0.00100698431,86.3778904 C6.05019172,84.1082737 12.0266937,81.8796021 17.9305128,79.6918758 C18.6986156,95.715418 29.9499205,107.394531 45.3476562,107.394531 C61.8984375,107.394531 73.6992188,93.9609375 73.6992188,77.8554688 C73.6992188,71.5881994 71.906154,65.8799443 68.832949,61.1998903 C74.637824,59.1328215 80.4488626,57.0798618 86.2646746,55.0400775 Z" id="Combined-Shape" fill="url(#linearGradient-1)"></path>
            <path d="M17.8867188,0 L17.8867188,45.71875 C24.8632813,35.9960938 35.4765625,30.6523438 48.1679687,30.6523438 C65.1441076,30.6523438 79.1792566,40.3749099 86.3754413,55.0007281 C80.5221076,57.053986 74.6744163,59.1198003 68.8315588,61.1989566 C63.7541771,53.4654317 55.1786142,48.5390625 45.421875,48.5390625 C30.28125,48.5390625 17.8867188,60.4140625 17.8867188,77.9296875 C17.8867188,78.5229725 17.9008596,79.1108749 17.9288374,79.6930428 C12.0266937,81.8796021 6.05019172,84.1082737 0.00100698431,86.3778904 L0,0 L17.8867188,0 Z" id="Combined-Shape-Copy" fill="#000000"></path>
        </g>
    </g>
</svg>
