<svg width="455" height="455" viewBox="0 0 455 455" fill="none" xmlns="http://www.w3.org/2000/svg">
<path d="M411.553 293.147V118.537C411.553 111.8 410.11 105.351 407.492 99.5034C424.249 106.976 435.56 123.579 435.56 142.443V317.054C435.56 343.387 413.992 364.193 387.548 364.193H207.501L116.032 421.638C99.4582 433.581 99.4582 425.125 99.4582 415.441V393.063L183.494 340.286H363.54C389.985 340.286 411.553 319.481 411.553 293.147Z" fill="black" fill-opacity="0.25"/>
<path d="M75.4511 357.786V340.286C68.3631 340.286 61.6254 338.743 55.5595 335.99C59.6964 345.101 66.7065 352.759 75.4511 357.786Z" fill="black" fill-opacity="0.25"/>
<path d="M191.461 173.053C191.461 181.01 184.75 185.42 175.835 185.42H166.057V161.165H176.123C184.942 161.165 191.461 165.575 191.461 173.053Z" fill="black"/>
<path d="M166.057 242.748H186.285C195.679 242.748 204.691 238.147 204.691 227.985C204.691 218.974 198.172 213.509 186.572 213.509L166.057 213.413V242.748Z" fill="black"/>
<path fill-rule="evenodd" clip-rule="evenodd" d="M411.56 118.615V293.121C411.56 319.439 389.998 340.232 363.562 340.232H183.569L92.1275 397.642C75.5582 409.578 75.5582 401.127 75.5582 391.449V340.232C49.1217 340.232 27.5601 318.767 27.5601 293.121V118.615C27.5601 92.2973 49.1217 71.5044 75.5582 71.5044H363.547C390.636 71.5044 411.56 92.9693 411.56 118.615ZM209.005 192.994C215.332 192.994 225.877 181.586 225.877 165.672C225.877 144.39 205.362 125.504 177.369 125.504H126.56V280.04H192.516C223.48 280.04 243.996 257.32 243.996 232.874C243.996 209.579 225.494 192.994 209.005 192.994ZM271.532 226.068H305.564L312.179 125.504H264.63L271.532 226.068ZM288.596 285.504C301.634 285.504 312.563 275.726 312.563 263.359C312.563 251.184 301.634 240.735 288.404 240.735C275.558 240.735 264.63 250.609 264.63 262.88C264.63 275.438 275.463 285.504 288.596 285.504Z" fill="black"/>
</svg>
