<svg id="visual" viewBox="0 0 900 900" width="900" height="900" xmlns="http://www.w3.org/2000/svg" xmlns:xlink="http://www.w3.org/1999/xlink" version="1.1"><rect x="0" y="0" width="900" height="900" fill="#de883a"></rect><defs><linearGradient id="grad1_0" x1="0%" y1="100%" x2="100%" y2="0%"><stop offset="30%" stop-color="#de883a" stop-opacity="1"></stop><stop offset="70%" stop-color="#de883a" stop-opacity="1"></stop></linearGradient></defs><defs><linearGradient id="grad2_0" x1="0%" y1="100%" x2="100%" y2="0%"><stop offset="30%" stop-color="#de883a" stop-opacity="1"></stop><stop offset="70%" stop-color="#de883a" stop-opacity="1"></stop></linearGradient></defs><g transform="translate(900, 900)"><path d="M-381.8 0C-374.1 -70.7 -366.4 -141.4 -330.7 -190.9C-295 -240.4 -231.3 -268.8 -171.5 -297C-111.7 -325.3 -55.9 -353.6 0 -381.8L0 0Z" fill="#be5c1f"></path></g><g transform="translate(0, 0)"><path d="M381.8 0C376.4 74.6 370.9 149.3 330.7 190.9C290.4 232.6 215.4 241.3 154.5 267.6C93.6 293.9 46.8 337.9 0 381.8L0 0Z" fill="#be5c1f"></path></g></svg>
